# xmcd CD database file
#
# Track frame offsets:
#	150
#	21727
#	44240
#	73812
#	100560
#	151957
#	180767
#	197310
#	222807
#
# Disc length: 3210 seconds
#
# Revision: 0
# Processed by: cddbd v1.5.2PL0 Copyright (c) Steve Scherf et al.
# Submitted via: CDex 1.70beta2
#
DISCID=760c8809
DTITLE=Kasper Tranberg 6 - Mortimer House
DYEAR=2002
DGENRE=Jazz
TTITLE0=Like A Glove
TTITLE1=Before Daybreak
TTITLE2=Green Side Up
TTITLE3=Night
TTITLE4=Mortimer House
TTITLE5=El Llianero Solitario
TTITLE6=Apollo Tropical
TTITLE7=All Major Sights
TTITLE8=It's All Bamboo II
EXTD=YEAR: 2002
EXTT0=
EXTT1=
EXTT2=
EXTT3=
EXTT4=
EXTT5=
EXTT6=
EXTT7=
EXTT8=
PLAYORDER=
